<svg width="334" height="47" viewBox="0 0 334 47" fill="none" xmlns="http://www.w3.org/2000/svg">
  <path d="M94.2297 1.60767H90.5645V16.2104H94.2963C95.3626 16.2104 96.3622 16.0095 97.2285 15.7416C98.0948 15.4066 98.7612 14.9377 99.361 14.2679C99.9608 13.665 100.361 12.8612 100.694 11.9234C100.96 10.9856 101.16 9.98082 101.16 8.84207C101.16 6.49759 100.561 4.68899 99.4276 3.48325C98.2281 2.21053 96.4955 1.60767 94.2297 1.60767ZM99.0944 8.84207C99.0944 10.6507 98.6946 12.0574 97.8283 13.0621C97.0286 14.0669 95.7624 14.5358 94.0964 14.5358H92.497V3.14833H94.0964C95.7624 3.14833 97.0286 3.61722 97.8283 4.55502C98.6946 5.62678 99.0944 7.03347 99.0944 8.84207Z" fill="white"/>
  <path d="M105.892 5.35883H103.959V16.2104H105.892V5.35883Z" fill="white"/>
  <path d="M104.959 3.28226C105.359 3.28226 105.625 3.14829 105.892 2.94733C106.158 2.74638 106.292 2.41145 106.292 2.07652C106.292 1.67461 106.158 1.40667 105.892 1.20571C105.625 1.00476 105.292 0.870789 104.959 0.870789C104.626 0.870789 104.292 1.00476 104.026 1.20571C103.759 1.40667 103.626 1.7416 103.626 2.07652C103.626 2.41145 103.759 2.74638 104.026 2.94733C104.226 3.14829 104.559 3.28226 104.959 3.28226Z" fill="white"/>
  <path d="M114.155 5.09088C113.556 5.09088 112.956 5.29184 112.423 5.69375C111.89 6.09566 111.49 6.56456 111.156 7.23441L111.023 5.42581V5.35882H109.424V16.2104H111.356V9.24397C111.69 8.37316 112.156 7.70331 112.623 7.36838C113.089 7.03345 113.556 6.8325 114.022 6.8325C114.222 6.8325 114.422 6.8325 114.555 6.89948C114.688 6.89948 114.888 6.96647 115.022 7.03345H115.088L115.488 5.29184H115.421C115.022 5.15787 114.622 5.09088 114.155 5.09088Z" fill="white"/>
  <path d="M119.087 16.0764C119.686 16.3444 120.42 16.4783 121.153 16.4783C121.886 16.4783 122.552 16.3444 123.152 16.1434C123.752 15.9425 124.285 15.6745 124.751 15.3396H124.818L124.085 13.9999L124.018 14.0669C123.618 14.3348 123.218 14.5358 122.819 14.6697C122.419 14.8037 121.952 14.8707 121.419 14.8707C120.42 14.8707 119.62 14.5358 118.953 13.8659C118.354 13.1961 118.02 12.3253 117.887 11.2535H125.084V11.1865C125.084 11.0525 125.151 10.9186 125.151 10.7176C125.151 10.5167 125.151 10.3157 125.151 10.1817C125.151 9.44489 125.084 8.70805 124.884 8.10519C124.684 7.50232 124.418 6.96644 124.018 6.49754C123.685 6.02864 123.218 5.69372 122.685 5.49276C122.152 5.22482 121.552 5.15784 120.819 5.15784C120.22 5.15784 119.62 5.29181 119.02 5.55975C118.42 5.82769 117.887 6.2296 117.487 6.6985C117.021 7.16739 116.688 7.77026 116.421 8.5071C116.155 9.24394 116.021 10.0478 116.021 10.9186C116.021 11.7894 116.155 12.5932 116.421 13.33C116.688 13.9999 117.087 14.6028 117.554 15.1386C117.954 15.4736 118.487 15.8085 119.087 16.0764ZM117.887 9.8468C117.954 9.37791 118.087 8.90901 118.22 8.5071C118.42 8.10519 118.62 7.77026 118.887 7.50232C119.153 7.23438 119.487 7.03342 119.82 6.83247C120.153 6.6985 120.486 6.63151 120.886 6.63151C121.686 6.63151 122.352 6.89945 122.752 7.43533C123.218 7.97122 123.418 8.77504 123.418 9.77982H117.887V9.8468Z" fill="white"/>
  <path d="M134.614 16.2104H136.746L132.615 9.71283L136.213 5.49276L136.28 5.35879H134.081L129.549 10.9856V0.3349H127.683V16.2104H129.549V13.33L131.482 11.1195L134.614 16.2104Z" fill="white"/>
  <path d="M138.412 12.8612C138.412 13.397 138.479 13.8659 138.546 14.3348C138.679 14.8037 138.812 15.2056 139.079 15.4736C139.345 15.8085 139.679 16.0095 140.078 16.2104C140.478 16.4114 140.945 16.4784 141.544 16.4784C141.878 16.4784 142.211 16.4114 142.611 16.3444C142.944 16.2774 143.277 16.1434 143.544 16.0765H143.61L143.21 14.6028H143.144C142.944 14.6698 142.744 14.7367 142.544 14.8037C142.344 14.8707 142.144 14.8707 141.944 14.8707C141.345 14.8707 140.945 14.6698 140.745 14.3348C140.545 13.9999 140.412 13.464 140.412 12.8612V6.96646H143.277V5.35882H140.345V2.34448H138.679L138.479 5.35882L136.813 5.49279V6.96646H138.412V12.8612Z" fill="white"/>
  <path d="M154.073 13.1961C154.34 12.4592 154.473 11.6554 154.473 10.7846C154.473 9.91379 154.34 9.04298 154.073 8.37313C153.806 7.63629 153.407 7.03342 152.94 6.56453C152.474 6.09563 151.941 5.69372 151.341 5.42578C150.741 5.15784 150.075 5.02386 149.408 5.02386C148.742 5.02386 148.075 5.15784 147.476 5.42578C146.876 5.69372 146.343 6.02864 145.876 6.56453C145.41 7.03342 145.077 7.63629 144.743 8.37313C144.477 9.10996 144.344 9.91379 144.344 10.7846C144.344 11.6554 144.477 12.4592 144.743 13.1961C145.01 13.9329 145.41 14.5358 145.876 15.0047C146.343 15.4736 146.876 15.8755 147.476 16.1434C148.075 16.4114 148.742 16.5453 149.408 16.5453C150.075 16.5453 150.741 16.4114 151.341 16.1434C151.941 15.8755 152.474 15.5405 152.94 15.0047C153.407 14.5358 153.74 13.9329 154.073 13.1961ZM152.474 10.7846C152.474 11.3875 152.407 11.9233 152.274 12.4592C152.14 12.9281 151.941 13.397 151.674 13.7319C151.407 14.0669 151.074 14.3348 150.741 14.5358C150.341 14.7367 149.941 14.8037 149.541 14.8037C149.075 14.8037 148.675 14.7367 148.342 14.5358C147.942 14.3348 147.676 14.0669 147.409 13.7319C147.142 13.397 146.942 12.9281 146.809 12.4592C146.676 11.9903 146.609 11.3875 146.609 10.7846C146.609 10.1817 146.676 9.57886 146.809 9.10996C146.942 8.64107 147.142 8.17217 147.409 7.83724C147.676 7.50232 148.009 7.16739 148.342 7.03342C148.742 6.83247 149.142 6.76548 149.541 6.76548C150.008 6.76548 150.408 6.83247 150.741 7.03342C151.141 7.23438 151.407 7.50232 151.674 7.83724C151.941 8.17217 152.14 8.64107 152.274 9.10996C152.407 9.64585 152.474 10.1817 152.474 10.7846Z" fill="white"/>
  <path d="M161.937 5.09088C161.337 5.09088 160.737 5.29184 160.204 5.69375C159.671 6.09566 159.271 6.56456 158.938 7.23441L158.804 5.42581V5.35882H157.205V16.2104H159.138V9.24397C159.471 8.37316 159.937 7.70331 160.404 7.36838C160.87 7.03345 161.337 6.8325 161.803 6.8325C162.003 6.8325 162.203 6.8325 162.336 6.89948C162.47 6.89948 162.67 6.96647 162.803 7.03345H162.87L163.269 5.29184H163.203C162.803 5.15787 162.403 5.09088 161.937 5.09088Z" fill="white"/>
  <path d="M163.603 13.3971C163.603 14.4018 163.936 15.1387 164.536 15.6745C165.135 16.2104 165.935 16.4784 166.801 16.4784C167.468 16.4784 168.134 16.3444 168.734 16.0095C169.334 15.7415 169.867 15.3396 170.333 14.9377L170.467 16.2104H172.066V9.57889C172.066 8.23919 171.733 7.16742 171.2 6.29662C170.6 5.49279 169.6 5.09088 168.334 5.09088C167.468 5.09088 166.668 5.22485 165.935 5.55978C165.202 5.8947 164.602 6.16265 164.069 6.49757L164.002 6.56456L164.802 7.97125L164.869 7.90426C165.269 7.63632 165.802 7.36838 166.335 7.10044C166.868 6.89948 167.468 6.76551 168.067 6.76551C168.467 6.76551 168.867 6.8325 169.134 6.96647C169.4 7.10044 169.6 7.30139 169.8 7.56934C169.933 7.83728 170.067 8.10522 170.133 8.44014C170.2 8.70808 170.2 9.04301 170.2 9.37794C167.934 9.64588 166.268 10.0478 165.269 10.7176C164.136 11.2535 163.603 12.1913 163.603 13.3971ZM165.735 12.3253C165.868 12.0573 166.135 11.7894 166.535 11.5884C166.935 11.3875 167.401 11.1865 168.001 11.0526C168.601 10.9186 169.334 10.7846 170.2 10.6507V13.531C169.733 13.9999 169.2 14.3348 168.801 14.6028C168.334 14.8707 167.868 14.9377 167.401 14.9377C166.868 14.9377 166.468 14.8037 166.068 14.5358C165.735 14.2679 165.535 13.8659 165.535 13.2631C165.468 12.9282 165.535 12.5932 165.735 12.3253Z" fill="white"/>
  <path d="M178.463 16.4784C178.797 16.4784 179.13 16.4114 179.53 16.3444C179.863 16.2774 180.196 16.1434 180.463 16.0765H180.529L180.129 14.6028H180.063C179.863 14.6698 179.663 14.7367 179.463 14.8037C179.263 14.8707 179.063 14.8707 178.863 14.8707C178.264 14.8707 177.864 14.6698 177.664 14.3348C177.464 13.9999 177.331 13.464 177.331 12.8612V6.96646H180.196V5.35882H177.331V2.34448H175.665L175.465 5.35882L173.799 5.49279V6.96646H175.398V12.8612C175.398 13.397 175.465 13.8659 175.531 14.3348C175.665 14.8037 175.798 15.2056 176.064 15.4736C176.331 15.8085 176.664 16.0095 177.064 16.2104C177.397 16.4114 177.864 16.4784 178.463 16.4784Z" fill="white"/>
  <path d="M182.862 15.0047C183.328 15.4736 183.861 15.8755 184.528 16.1434C185.127 16.4114 185.86 16.5454 186.593 16.5454C187.327 16.5454 187.993 16.4114 188.593 16.2104C189.192 16.0095 189.726 15.7415 190.192 15.4066H190.259L189.526 14.0669L189.459 14.1339C189.059 14.4018 188.659 14.6028 188.26 14.7368C187.86 14.8707 187.393 14.9377 186.86 14.9377C185.86 14.9377 185.061 14.6028 184.394 13.9329C183.795 13.2631 183.461 12.3923 183.328 11.3205H190.525V11.2535C190.525 11.1196 190.592 10.9856 190.592 10.7846C190.592 10.5837 190.592 10.3827 190.592 10.2487C190.592 9.51191 190.525 8.77507 190.325 8.1722C190.125 7.56934 189.859 7.03346 189.459 6.56456C189.126 6.09566 188.659 5.76074 188.126 5.55978C187.593 5.29184 186.993 5.22485 186.26 5.22485C185.661 5.22485 185.061 5.35882 184.461 5.62676C183.861 5.89471 183.328 6.29662 182.928 6.76551C182.462 7.23441 182.129 7.83728 181.862 8.57412C181.595 9.31095 181.462 10.1148 181.462 10.9856C181.462 11.8564 181.595 12.6602 181.862 13.3971C181.995 13.8659 182.395 14.4688 182.862 15.0047ZM183.261 9.84684C183.328 9.37794 183.461 8.90904 183.595 8.50713C183.795 8.10522 183.995 7.77029 184.261 7.50235C184.528 7.23441 184.861 7.03345 185.194 6.8325C185.527 6.69853 185.86 6.63154 186.26 6.63154C187.06 6.63154 187.726 6.89948 188.126 7.43537C188.593 7.97125 188.793 8.77507 188.793 9.77985H183.261V9.84684Z" fill="white"/>
  <path d="M197.856 14.6028C197.656 14.6698 197.456 14.7367 197.256 14.8037C197.056 14.8707 196.856 14.8707 196.656 14.8707C196.056 14.8707 195.657 14.6698 195.457 14.3348C195.257 13.9999 195.123 13.464 195.123 12.8612V6.96646H197.989V5.35882H195.123V2.34448H193.457L193.258 5.35882L191.592 5.49279V6.96646H193.191V12.8612C193.191 13.397 193.258 13.8659 193.324 14.3348C193.457 14.8037 193.591 15.2056 193.857 15.4736C194.124 15.8085 194.457 16.0095 194.857 16.2104C195.257 16.4114 195.723 16.4784 196.323 16.4784C196.656 16.4784 196.989 16.4114 197.389 16.3444C197.722 16.2774 198.056 16.1434 198.322 16.0765H198.389L197.989 14.6028H197.856Z" fill="white"/>
  <path d="M209.385 5.35882H207.119V3.68419C207.119 2.34448 207.585 1.67463 208.518 1.67463C208.918 1.67463 209.318 1.74162 209.718 1.94257H209.784L210.184 0.468897V0.401911H210.118C209.851 0.267941 209.585 0.200956 209.251 0.13397C208.918 0.0669852 208.652 0 208.252 0C207.185 0 206.386 0.334926 205.853 1.00478C205.32 1.67463 205.053 2.54544 205.053 3.68419V5.29183L203.587 5.4258V6.89948H205.053V16.1434H206.986V6.96646H209.251V5.35882H209.385Z" fill="white"/>
  <path d="M211.784 15.0047C212.25 15.4736 212.783 15.8755 213.383 16.1434C213.983 16.4114 214.649 16.5453 215.316 16.5453C215.982 16.5453 216.648 16.4114 217.248 16.1434C217.848 15.8755 218.381 15.5405 218.848 15.0047C219.314 14.5358 219.647 13.9329 219.98 13.1961C220.247 12.4592 220.38 11.6554 220.38 10.7846C220.38 9.91379 220.247 9.04298 219.98 8.37313C219.714 7.63629 219.314 7.03342 218.848 6.56453C218.381 6.09563 217.848 5.69372 217.248 5.42578C216.648 5.15784 215.982 5.02386 215.316 5.02386C214.649 5.02386 213.983 5.15784 213.383 5.42578C212.783 5.69372 212.25 6.02864 211.784 6.56453C211.317 7.03342 210.984 7.63629 210.651 8.37313C210.384 9.10996 210.251 9.91379 210.251 10.7846C210.251 11.6554 210.384 12.4592 210.651 13.1961C210.917 13.9329 211.317 14.5358 211.784 15.0047ZM212.25 10.7846C212.25 10.1817 212.317 9.57886 212.45 9.10996C212.583 8.64107 212.783 8.17217 213.05 7.83724C213.316 7.50232 213.65 7.16739 213.983 7.03342C214.383 6.83247 214.783 6.76548 215.182 6.76548C215.649 6.76548 216.049 6.83247 216.382 7.03342C216.782 7.23438 217.048 7.50232 217.315 7.83724C217.581 8.17217 217.781 8.64107 217.915 9.10996C218.048 9.57886 218.115 10.1817 218.115 10.7846C218.115 11.3875 218.048 11.9233 217.915 12.4592C217.781 12.9281 217.581 13.397 217.315 13.7319C217.048 14.0669 216.715 14.3348 216.382 14.5358C215.982 14.7367 215.582 14.8037 215.182 14.8037C214.716 14.8037 214.316 14.7367 213.983 14.5358C213.583 14.3348 213.316 14.0669 213.05 13.7319C212.783 13.397 212.583 12.9281 212.45 12.4592C212.317 11.9903 212.25 11.4544 212.25 10.7846Z" fill="white"/>
  <path d="M227.911 6.89948C228.044 6.89948 228.244 6.96647 228.377 7.03345H228.444L228.844 5.29184H228.777C228.444 5.15787 228.044 5.09088 227.577 5.09088C226.978 5.09088 226.378 5.29184 225.845 5.69375C225.312 6.09566 224.912 6.56456 224.579 7.23441L224.445 5.42581V5.35882H222.846V16.2104H224.779V9.24397C225.112 8.37316 225.578 7.70331 226.045 7.36838C226.511 7.03345 226.978 6.8325 227.444 6.8325C227.577 6.8325 227.777 6.89948 227.911 6.89948Z" fill="white"/>
  <path d="M237.041 3.68419C237.041 2.34448 237.507 1.67463 238.44 1.67463C238.84 1.67463 239.24 1.74162 239.639 1.94257H239.706L240.106 0.468897V0.401911H240.039C239.773 0.267941 239.506 0.200956 239.173 0.13397C238.84 0.0669852 238.573 0 238.173 0C237.107 0 236.307 0.334926 235.774 1.00478C235.241 1.67463 234.975 2.54544 234.975 3.68419V5.29183L233.509 5.4258V6.89948H234.975V16.1434H236.907V6.96646H239.173V5.35882H236.907V3.68419H237.041Z" fill="white"/>
  <path d="M248.703 6.56453C248.236 6.09563 247.703 5.69372 247.103 5.42578C246.503 5.15784 245.837 5.02386 245.171 5.02386C244.504 5.02386 243.838 5.15784 243.238 5.42578C242.638 5.69372 242.105 6.02864 241.639 6.56453C241.172 7.03342 240.839 7.63629 240.506 8.37313C240.239 9.10996 240.106 9.91379 240.106 10.7846C240.106 11.6554 240.239 12.4592 240.506 13.1961C240.772 13.9329 241.172 14.5358 241.639 15.0047C242.105 15.4736 242.638 15.8755 243.238 16.1434C243.838 16.4114 244.504 16.5453 245.171 16.5453C245.837 16.5453 246.503 16.4114 247.103 16.1434C247.703 15.8755 248.236 15.5405 248.703 15.0047C249.169 14.5358 249.502 13.9329 249.835 13.1961C250.102 12.4592 250.235 11.6554 250.235 10.7846C250.235 9.91379 250.102 9.04298 249.835 8.37313C249.569 7.70327 249.169 7.10041 248.703 6.56453ZM248.236 10.7846C248.236 11.3875 248.169 11.9233 248.036 12.4592C247.903 12.9281 247.703 13.397 247.436 13.7319C247.17 14.0669 246.837 14.3348 246.503 14.5358C246.104 14.7367 245.704 14.8037 245.304 14.8037C244.837 14.8037 244.438 14.7367 244.104 14.5358C243.705 14.3348 243.438 14.0669 243.171 13.7319C242.905 13.397 242.705 12.9281 242.572 12.4592C242.438 11.9903 242.372 11.3875 242.372 10.7846C242.372 10.1817 242.438 9.57886 242.572 9.10996C242.705 8.64107 242.905 8.17217 243.171 7.83724C243.438 7.50232 243.771 7.16739 244.104 7.03342C244.504 6.83247 244.904 6.76548 245.304 6.76548C245.77 6.76548 246.17 6.83247 246.503 7.03342C246.903 7.23438 247.17 7.50232 247.436 7.83724C247.703 8.17217 247.903 8.64107 248.036 9.10996C248.169 9.64585 248.236 10.1817 248.236 10.7846Z" fill="white"/>
  <path d="M254.833 9.24397C255.167 8.37316 255.633 7.70331 256.1 7.36838C256.566 7.03345 257.033 6.8325 257.499 6.8325C257.699 6.8325 257.899 6.8325 258.032 6.89948C258.165 6.89948 258.365 6.96647 258.499 7.03345H258.565L258.965 5.29184H258.899C258.565 5.15787 258.165 5.09088 257.699 5.09088C257.099 5.09088 256.499 5.29184 255.966 5.69375C255.433 6.09566 255.033 6.56456 254.7 7.23441L254.567 5.42581V5.35882H252.968V16.2104H254.9L254.833 9.24397Z" fill="white"/>
  <path d="M265.496 11.5215L265.029 13.1291C264.896 13.665 264.696 14.1339 264.563 14.6028C264.43 14.1339 264.23 13.598 264.096 13.1291C263.897 12.5932 263.763 12.0574 263.63 11.5215L261.631 5.42581V5.35883H259.632L263.497 16.2104V16.2774H265.696L269.494 5.4928V5.42581H267.562L265.496 11.5215Z" fill="white"/>
  <path d="M275.026 5.09088C274.159 5.09088 273.36 5.22485 272.627 5.55978C271.894 5.8947 271.294 6.16265 270.761 6.49757L270.694 6.56456L271.494 7.97125L271.56 7.90426C271.96 7.63632 272.493 7.36838 273.026 7.10044C273.56 6.89948 274.159 6.76551 274.759 6.76551C275.159 6.76551 275.559 6.8325 275.825 6.96647C276.092 7.10044 276.292 7.30139 276.492 7.56934C276.625 7.83728 276.758 8.10522 276.825 8.44014C276.892 8.70808 276.892 9.04301 276.892 9.37794C274.626 9.64588 272.96 10.0478 271.96 10.7176C270.894 11.3875 270.361 12.2583 270.361 13.464C270.361 14.4688 270.694 15.2057 271.294 15.7415C271.894 16.2774 272.693 16.5454 273.56 16.5454C274.226 16.5454 274.892 16.4114 275.492 16.0765C276.092 15.8085 276.625 15.4066 277.092 15.0047L277.225 16.2774H278.824V9.64588C278.824 8.30617 278.491 7.23441 277.958 6.3636C277.291 5.49279 276.358 5.09088 275.026 5.09088ZM272.427 12.3253C272.56 12.0573 272.827 11.7894 273.226 11.5884C273.626 11.3875 274.093 11.1865 274.692 11.0526C275.292 10.9186 276.025 10.7846 276.892 10.6507V13.531C276.425 13.9999 275.892 14.3348 275.492 14.6028C275.026 14.8707 274.559 14.9377 274.093 14.9377C273.56 14.9377 273.16 14.8037 272.76 14.5358C272.427 14.2679 272.227 13.8659 272.227 13.2631C272.16 12.9282 272.227 12.5932 272.427 12.3253Z" fill="white"/>
  <path d="M284.755 14.8037C284.622 14.8707 284.555 14.8707 284.555 14.8707H284.422C284.289 14.8707 284.222 14.8037 284.089 14.7367C284.022 14.6028 283.956 14.4688 283.956 14.1339V0.3349H282.023V13.9999C282.023 14.8037 282.156 15.4066 282.489 15.8755C282.823 16.2774 283.289 16.5453 284.022 16.5453C284.289 16.5453 284.489 16.5453 284.622 16.4783C284.755 16.4783 284.955 16.4114 285.088 16.3444H285.155L284.889 14.8707L284.755 14.8037Z" fill="white"/>
  <path d="M292.685 14.6028C292.485 14.6698 292.285 14.7367 292.085 14.8037C291.885 14.8707 291.685 14.8707 291.486 14.8707C290.886 14.8707 290.486 14.6698 290.286 14.3348C290.086 13.9999 289.953 13.464 289.953 12.8612V6.96646H292.818V5.35882H289.953V2.34448H288.287L288.087 5.35882L286.421 5.49279V6.96646H288.02V12.8612C288.02 13.397 288.087 13.8659 288.154 14.3348C288.287 14.8037 288.42 15.2056 288.687 15.4736C288.953 15.8085 289.286 16.0095 289.686 16.2104C290.086 16.4114 290.553 16.4784 291.152 16.4784C291.486 16.4784 291.819 16.4114 292.219 16.3444C292.552 16.2774 292.885 16.1434 293.152 16.0765H293.218L292.818 14.6028H292.685Z" fill="white"/>
  <path d="M300.416 5.09088C299.683 5.09088 299.016 5.29184 298.416 5.62676C297.883 5.96169 297.35 6.3636 296.817 6.89948L296.684 5.35882H295.084V16.2104H297.017V8.44014C297.55 7.90426 298.017 7.50235 298.416 7.23441C298.816 6.96647 299.283 6.8325 299.883 6.8325C300.549 6.8325 301.082 7.03345 301.349 7.50235C301.682 7.97125 301.815 8.6411 301.815 9.64588V16.2774H303.748V9.37794C303.748 7.97125 303.481 6.89948 302.948 6.22963C302.415 5.42581 301.549 5.09088 300.416 5.09088Z" fill="white"/>
  <path d="M309.012 5.35883H307.08V16.2104H309.012V5.35883Z" fill="white"/>
  <path d="M308.079 0.803833C307.68 0.803833 307.413 0.937803 307.146 1.13876C306.88 1.33971 306.747 1.67464 306.747 2.00957C306.747 2.34449 306.88 2.67942 307.146 2.88037C307.413 3.08133 307.746 3.2153 308.079 3.2153C308.479 3.2153 308.746 3.08133 309.012 2.88037C309.279 2.67942 309.412 2.34449 309.412 2.00957C309.412 1.60766 309.279 1.33971 309.012 1.13876C308.746 0.937803 308.479 0.803833 308.079 0.803833Z" fill="white"/>
  <path d="M317.875 5.09088C317.142 5.09088 316.476 5.29184 315.876 5.62676C315.343 5.96169 314.81 6.3636 314.277 6.89948L314.143 5.35882H312.544V16.2104H314.477V8.44014C315.01 7.90426 315.476 7.50235 315.876 7.23441C316.276 6.96647 316.742 6.8325 317.342 6.8325C318.008 6.8325 318.542 7.03345 318.808 7.50235C319.141 7.97125 319.275 8.6411 319.275 9.64588V16.2774H321.207V9.37794C321.207 7.97125 320.941 6.89948 320.408 6.22963C319.874 5.42581 319.008 5.09088 317.875 5.09088Z" fill="white"/>
  <path d="M332.536 15.4066C331.937 15.0047 330.937 14.8037 329.671 14.8037H327.605C326.872 14.8037 326.406 14.6698 326.139 14.4688C325.872 14.2679 325.739 13.9999 325.739 13.665C325.739 13.3971 325.806 13.1291 325.939 12.9282C326.072 12.7272 326.206 12.5932 326.406 12.4593C326.672 12.5932 326.872 12.6602 327.139 12.7272C327.405 12.7942 327.672 12.8612 327.938 12.8612C328.471 12.8612 329.005 12.7942 329.471 12.5932C329.938 12.3923 330.404 12.1913 330.737 11.8564C331.07 11.5215 331.404 11.1196 331.604 10.6507C331.803 10.1818 331.937 9.64588 331.937 9.04301C331.937 8.57411 331.87 8.1722 331.67 7.77029C331.537 7.43537 331.337 7.16742 331.137 6.89948H333.27V5.35882H329.471C329.271 5.29184 329.005 5.22485 328.805 5.15787C328.538 5.09088 328.272 5.09088 327.938 5.09088C327.405 5.09088 326.872 5.15787 326.339 5.35882C325.872 5.55978 325.406 5.82772 325.006 6.16265C324.606 6.49757 324.34 6.89948 324.14 7.36838C323.94 7.83728 323.807 8.37316 323.807 8.97603C323.807 9.64588 323.94 10.2487 324.273 10.7176C324.54 11.1865 324.873 11.5884 325.206 11.9234C324.939 12.1243 324.673 12.3923 324.406 12.7272C324.14 13.0621 324.007 13.464 324.007 13.9329C324.007 14.4018 324.073 14.7368 324.273 15.0717C324.473 15.3396 324.673 15.6076 324.939 15.7415C324.473 16.0765 324.073 16.4784 323.807 16.8803C323.54 17.2822 323.407 17.7511 323.407 18.22C323.407 18.6889 323.54 19.1578 323.74 19.4927C323.94 19.8276 324.273 20.1626 324.673 20.4305C325.073 20.6984 325.539 20.8994 326.072 21.0334C326.605 21.1673 327.205 21.2343 327.872 21.2343C328.738 21.2343 329.471 21.1004 330.137 20.8994C330.804 20.6984 331.404 20.4305 331.87 20.0956C332.337 19.7606 332.736 19.3587 332.936 18.8898C333.203 18.4209 333.336 17.952 333.336 17.4162C333.469 16.4784 333.136 15.8085 332.536 15.4066ZM325.806 8.97603C325.806 8.1722 326.006 7.56934 326.472 7.16742C326.872 6.76551 327.405 6.56456 328.005 6.56456C328.605 6.56456 329.138 6.76551 329.538 7.16742C329.938 7.56934 330.204 8.1722 330.204 8.97603C330.204 9.37794 330.137 9.71286 330.004 10.0478C329.871 10.3827 329.738 10.6507 329.538 10.8516C329.338 11.0526 329.071 11.2535 328.805 11.3205C328.271 11.5215 327.672 11.5215 327.139 11.3205C326.872 11.1865 326.605 11.0526 326.406 10.8516C326.206 10.6507 326.006 10.3827 325.939 10.0478C325.872 9.71286 325.806 9.37794 325.806 8.97603ZM331.604 17.6841C331.604 17.952 331.537 18.22 331.404 18.4879C331.27 18.7559 331.004 18.9568 330.737 19.1578C330.471 19.3587 330.071 19.4927 329.671 19.6267C329.271 19.7606 328.805 19.8276 328.272 19.8276C327.339 19.8276 326.539 19.6267 326.006 19.3587C325.473 19.0238 325.206 18.6219 325.206 18.019C325.206 17.7511 325.273 17.4162 325.473 17.1482C325.673 16.8803 325.939 16.5454 326.272 16.2774C326.472 16.3444 326.739 16.4114 326.939 16.4114C327.205 16.4114 327.405 16.4784 327.605 16.4784H329.471C330.137 16.4784 330.671 16.5454 331.07 16.7463C331.404 16.8803 331.604 17.2152 331.604 17.6841Z" fill="white"/>
  <path d="M98.1616 31.885C97.6951 31.4161 97.162 31.0142 96.5622 30.7462C95.9624 30.4783 95.296 30.3443 94.6296 30.3443C93.9632 30.3443 93.2968 30.4783 92.6971 30.7462C92.0973 31.0142 91.5642 31.3491 91.0977 31.885C90.6312 32.3539 90.298 32.9567 89.9648 33.6936C89.6982 34.4304 89.5649 35.2342 89.5649 36.105C89.5649 36.9758 89.6982 37.7797 89.9648 38.5165C90.2314 39.2533 90.6312 39.8562 91.0977 40.3251C91.5642 40.794 92.0973 41.1959 92.6971 41.4638C93.2968 41.7318 93.9632 41.8658 94.6296 41.8658C95.296 41.8658 95.9624 41.7318 96.5622 41.4638C97.162 41.1959 97.6951 40.861 98.1616 40.3251C98.6281 39.8562 98.9613 39.2533 99.2945 38.5165C99.561 37.7797 99.6943 36.9758 99.6943 36.105C99.6943 35.2342 99.561 34.3634 99.2945 33.6936C98.9613 33.0237 98.6281 32.4208 98.1616 31.885ZM97.6284 36.105C97.6284 36.7079 97.5618 37.2438 97.4285 37.7797C97.2952 38.2486 97.0953 38.7175 96.8288 39.0524C96.5622 39.3873 96.229 39.6552 95.8958 39.8562C95.4959 40.0572 95.0961 40.1241 94.6963 40.1241C94.2298 40.1241 93.8299 40.0572 93.4967 39.8562C93.0969 39.6552 92.8303 39.3873 92.5638 39.0524C92.2972 38.7175 92.0973 38.2486 91.964 37.7797C91.8307 37.3108 91.7641 36.7079 91.7641 36.105C91.7641 35.5022 91.8307 34.8993 91.964 34.4304C92.0973 33.9615 92.2972 33.4926 92.5638 33.1577C92.8303 32.8228 93.1635 32.4878 93.4967 32.3539C93.8966 32.1529 94.2964 32.0859 94.6963 32.0859C95.1628 32.0859 95.5626 32.1529 95.8958 32.3539C96.2956 32.5548 96.5622 32.8228 96.8288 33.1577C97.0953 33.4926 97.2952 33.9615 97.4285 34.4304C97.5618 34.9663 97.6284 35.5022 97.6284 36.105Z" fill="white"/>
  <path d="M110.49 40.727C109.89 40.3251 108.891 40.1242 107.625 40.1242H105.559C104.826 40.1242 104.359 39.9902 104.093 39.7893C103.826 39.5883 103.693 39.3204 103.693 38.9854C103.693 38.7175 103.759 38.4495 103.893 38.2486C104.026 38.0476 104.159 37.9137 104.359 37.7797C104.626 37.9137 104.826 37.9806 105.092 38.0476C105.359 38.1146 105.625 38.1816 105.892 38.1816C106.425 38.1816 106.958 38.1146 107.425 37.9137C107.891 37.7127 108.358 37.5118 108.691 37.1768C109.024 36.8419 109.357 36.44 109.557 35.9711C109.757 35.5022 109.89 34.9663 109.89 34.3634C109.89 33.8945 109.824 33.4926 109.624 33.0907C109.491 32.7558 109.291 32.4879 109.091 32.2199H111.223V30.6793H107.425C107.225 30.6123 106.958 30.5453 106.758 30.4783C106.492 30.4113 106.225 30.4113 105.892 30.4113C105.359 30.4113 104.826 30.4783 104.293 30.6793C103.826 30.8802 103.36 31.1482 102.96 31.4831C102.56 31.818 102.293 32.2199 102.093 32.6888C101.893 33.1577 101.76 33.6936 101.76 34.2965C101.76 34.9663 101.893 35.5692 102.227 36.0381C102.493 36.507 102.826 36.9089 103.16 37.2438C102.893 37.4448 102.627 37.7127 102.36 38.0476C102.093 38.3826 101.96 38.7845 101.96 39.2534C101.96 39.7223 102.027 40.0572 102.227 40.3921C102.427 40.6601 102.627 40.928 102.893 41.062C102.427 41.3969 102.027 41.7988 101.76 42.2007C101.494 42.6026 101.36 43.0715 101.36 43.5404C101.36 44.0093 101.494 44.4782 101.694 44.8131C101.893 45.1481 102.227 45.483 102.627 45.7509C103.026 46.0189 103.493 46.2198 104.026 46.3538C104.559 46.4878 105.159 46.5548 105.825 46.5548C106.692 46.5548 107.425 46.4208 108.091 46.2198C108.757 46.0189 109.357 45.7509 109.824 45.416C110.29 45.0811 110.69 44.6792 110.89 44.2103C111.157 43.7414 111.29 43.2725 111.29 42.7366C111.49 41.7988 111.157 41.129 110.49 40.727ZM103.826 34.2965C103.826 33.4926 104.026 32.8898 104.492 32.4879C104.892 32.0859 105.425 31.885 106.025 31.885C106.625 31.885 107.158 32.0859 107.558 32.4879C107.958 32.8898 108.224 33.4926 108.224 34.2965C108.224 34.6984 108.158 35.0333 108.024 35.3682C107.891 35.7031 107.758 35.9711 107.558 36.172C107.358 36.373 107.091 36.574 106.825 36.6409C106.292 36.8419 105.692 36.8419 105.159 36.6409C104.892 36.507 104.626 36.373 104.426 36.172C104.226 35.9711 104.026 35.7031 103.959 35.3682C103.893 35.0333 103.826 34.6984 103.826 34.2965ZM109.557 43.0045C109.557 43.2725 109.491 43.5404 109.357 43.8084C109.224 44.0763 108.957 44.2773 108.691 44.4782C108.424 44.6792 108.024 44.8131 107.625 44.9471C107.225 45.0811 106.758 45.1481 106.225 45.1481C105.292 45.1481 104.492 44.9471 103.959 44.6792C103.426 44.3442 103.16 43.9423 103.16 43.3395C103.16 43.0715 103.226 42.7366 103.426 42.4687C103.626 42.2007 103.893 41.8658 104.226 41.5979C104.426 41.6648 104.692 41.7318 104.892 41.7318C105.159 41.7318 105.359 41.7988 105.559 41.7988H107.425C108.091 41.7988 108.624 41.8658 109.024 42.0667C109.424 42.2007 109.557 42.5356 109.557 43.0045Z" fill="white"/>
  <path d="M126.55 30.1434L125.484 31.4831C125.084 31.1482 124.618 30.8802 124.085 30.6793C123.552 30.4783 123.018 30.4113 122.419 30.4113C121.752 30.4113 121.086 30.5453 120.486 30.8132C119.886 31.0812 119.353 31.4161 118.887 31.952C118.42 32.4209 118.087 33.0237 117.754 33.7606C117.487 34.4974 117.354 35.3012 117.354 36.172C117.354 36.9759 117.487 37.7127 117.687 38.3156C117.887 38.9184 118.154 39.4543 118.554 39.9232L117.354 41.3969L118.287 42.1337L119.353 40.794C120.22 41.4639 121.286 41.8658 122.419 41.8658C123.085 41.8658 123.751 41.7318 124.351 41.4639C124.951 41.1959 125.484 40.861 125.951 40.3251C126.417 39.8562 126.75 39.2534 127.084 38.5165C127.35 37.7797 127.483 36.9759 127.483 36.1051C127.483 35.3012 127.35 34.5644 127.15 33.9615C126.95 33.3587 126.684 32.7558 126.284 32.2869L127.483 30.8132L126.55 30.1434ZM124.351 32.8228L119.753 38.4495C119.42 37.7797 119.287 36.9759 119.287 36.1051C119.287 35.5022 119.353 34.9663 119.553 34.4304C119.686 33.9615 119.953 33.4926 120.22 33.1577C120.486 32.8228 120.819 32.5548 121.219 32.3539C121.619 32.1529 122.019 32.0859 122.485 32.0859C123.218 32.019 123.818 32.2869 124.351 32.8228ZM125.484 36.172C125.484 36.7749 125.418 37.3108 125.284 37.7797C125.151 38.2486 124.884 38.7175 124.618 39.0524C124.351 39.3873 124.018 39.6553 123.618 39.8562C123.218 40.0572 122.819 40.1242 122.352 40.1242C121.619 40.1242 120.953 39.8562 120.419 39.3203L125.018 33.6936C125.351 34.4974 125.484 35.3012 125.484 36.172Z" fill="white"/>
  <path d="M138.612 30.8132L138.746 30.6792H136.546L132.015 36.306V25.6553H130.082V41.5308H132.015V38.6505L133.947 36.44L137.013 41.5308H139.212L135.08 35.0333L138.612 30.8132Z" fill="white"/>
  <path d="M148.342 31.885C147.876 31.4161 147.342 31.0142 146.743 30.7462C146.143 30.4783 145.476 30.3443 144.81 30.3443C144.144 30.3443 143.477 30.4783 142.877 30.7462C142.278 31.0142 141.745 31.3491 141.278 31.885C140.812 32.3539 140.478 32.9567 140.145 33.6936C139.879 34.4304 139.745 35.2342 139.745 36.105C139.745 36.9758 139.879 37.7797 140.145 38.5165C140.412 39.2533 140.812 39.8562 141.278 40.3251C141.745 40.794 142.278 41.1959 142.877 41.4638C143.477 41.7318 144.144 41.8658 144.81 41.8658C145.476 41.8658 146.143 41.7318 146.743 41.4638C147.342 41.1959 147.876 40.861 148.342 40.3251C148.808 39.8562 149.142 39.2533 149.475 38.5165C149.741 37.7797 149.875 36.9758 149.875 36.105C149.875 35.2342 149.741 34.3634 149.475 33.6936C149.142 33.0237 148.808 32.4208 148.342 31.885ZM147.809 36.105C147.809 36.7079 147.742 37.2438 147.609 37.7797C147.476 38.2486 147.276 38.7175 147.009 39.0524C146.743 39.3873 146.409 39.6552 146.076 39.8562C145.676 40.0572 145.277 40.1241 144.877 40.1241C144.41 40.1241 144.01 40.0572 143.677 39.8562C143.277 39.6552 143.011 39.3873 142.744 39.0524C142.478 38.7175 142.278 38.2486 142.144 37.7797C142.011 37.3108 141.944 36.7079 141.944 36.105C141.944 35.5022 142.011 34.8993 142.144 34.4304C142.278 33.9615 142.478 33.4926 142.744 33.1577C143.011 32.8228 143.344 32.4878 143.677 32.3539C144.077 32.1529 144.477 32.0859 144.877 32.0859C145.343 32.0859 145.743 32.1529 146.076 32.3539C146.476 32.5548 146.743 32.8228 147.009 33.1577C147.276 33.4926 147.476 33.9615 147.609 34.4304C147.742 34.9663 147.809 35.5022 147.809 36.105Z" fill="white"/>
  <path d="M157.872 30.4113C157.138 30.4113 156.472 30.6123 155.872 30.9472C155.339 31.2821 154.806 31.684 154.273 32.2199L154.14 30.6793H152.54V41.5309H154.473V33.6936C155.006 33.1577 155.472 32.7558 155.872 32.4879C156.272 32.2199 156.739 32.0859 157.338 32.0859C158.005 32.0859 158.538 32.2869 158.804 32.7558C159.138 33.2247 159.271 33.8945 159.271 34.8993V41.5309H161.204V34.6314C161.204 33.2247 160.937 32.1529 160.404 31.4831C159.871 30.7462 159.004 30.4113 157.872 30.4113Z" fill="white"/>
  <path d="M172.266 31.885C171.799 31.4161 171.266 31.0142 170.666 30.7462C170.067 30.4783 169.4 30.3443 168.734 30.3443C168.067 30.3443 167.401 30.4783 166.801 30.7462C166.202 31.0142 165.668 31.3491 165.202 31.885C164.735 32.3539 164.402 32.9567 164.069 33.6936C163.802 34.4304 163.669 35.2342 163.669 36.105C163.669 36.9758 163.802 37.7797 164.069 38.5165C164.336 39.2533 164.735 39.8562 165.202 40.3251C165.668 40.794 166.202 41.1959 166.801 41.4638C167.401 41.7318 168.067 41.8658 168.734 41.8658C169.4 41.8658 170.067 41.7318 170.666 41.4638C171.266 41.1959 171.799 40.861 172.266 40.3251C172.732 39.8562 173.066 39.2533 173.399 38.5165C173.665 37.7797 173.799 36.9758 173.799 36.105C173.799 35.2342 173.665 34.3634 173.399 33.6936C173.132 33.0237 172.732 32.4208 172.266 31.885ZM171.799 36.105C171.799 36.7079 171.733 37.2438 171.599 37.7797C171.466 38.2486 171.266 38.7175 171 39.0524C170.733 39.3873 170.4 39.6552 170.067 39.8562C169.667 40.0572 169.267 40.1241 168.867 40.1241C168.401 40.1241 168.001 40.0572 167.668 39.8562C167.268 39.6552 167.001 39.3873 166.735 39.0524C166.468 38.7175 166.268 38.2486 166.135 37.7797C166.002 37.3108 165.935 36.7079 165.935 36.105C165.935 35.5022 166.002 34.8993 166.135 34.4304C166.268 33.9615 166.468 33.4926 166.735 33.1577C167.001 32.8228 167.334 32.4878 167.668 32.3539C168.067 32.1529 168.467 32.0859 168.867 32.0859C169.334 32.0859 169.733 32.1529 170.067 32.3539C170.467 32.5548 170.733 32.8228 171 33.1577C171.266 33.4926 171.466 33.9615 171.599 34.4304C171.733 34.9663 171.799 35.5022 171.799 36.105Z" fill="white"/>
  <path d="M188.06 30.4113C187.393 30.4113 186.727 30.6123 186.194 31.0142C185.661 31.3491 185.127 31.818 184.594 32.4209C184.394 31.818 184.061 31.3491 183.595 31.0142C183.128 30.6123 182.462 30.4783 181.662 30.4783C180.996 30.4783 180.396 30.6793 179.863 31.0142C179.33 31.3491 178.797 31.751 178.33 32.2869L178.197 30.7462H176.597V41.5978H178.53V33.7606C179.463 32.6888 180.396 32.1529 181.129 32.1529C181.795 32.1529 182.262 32.3539 182.595 32.8228C182.928 33.2917 183.062 33.9615 183.062 34.9663V41.5978H184.994V33.7606C185.927 32.6888 186.86 32.1529 187.593 32.1529C188.26 32.1529 188.726 32.3539 189.059 32.8228C189.392 33.2917 189.526 33.9615 189.526 34.9663V41.5978H191.458V34.6984C191.458 33.2917 191.192 32.2199 190.659 31.5501C189.992 30.7462 189.126 30.4113 188.06 30.4113Z" fill="white"/>
  <path d="M196.656 30.6793H194.724V41.5309H196.656V30.6793Z" fill="white"/>
  <path d="M195.657 26.1243C195.257 26.1243 194.99 26.2582 194.724 26.4592C194.457 26.6601 194.324 26.9951 194.324 27.33C194.324 27.6649 194.457 27.9999 194.724 28.2008C194.99 28.4018 195.324 28.5357 195.657 28.5357C196.057 28.5357 196.323 28.4018 196.59 28.2008C196.856 27.9999 196.99 27.6649 196.99 27.33C196.99 26.9281 196.856 26.6601 196.59 26.4592C196.39 26.2582 196.057 26.1243 195.657 26.1243Z" fill="white"/>
  <path d="M205.853 36.306C205.52 36.0381 205.186 35.8371 204.786 35.7031C204.387 35.5692 203.987 35.3682 203.654 35.2343C203.32 35.1003 203.054 35.0333 202.787 34.8993C202.521 34.7654 202.254 34.6984 202.054 34.4974C201.854 34.3634 201.654 34.2295 201.521 34.0285C201.388 33.8276 201.321 33.6266 201.321 33.4257C201.321 33.0237 201.454 32.6888 201.788 32.4209C202.121 32.1529 202.587 31.952 203.254 31.952C203.72 31.952 204.12 32.019 204.52 32.2199C204.92 32.4209 205.32 32.6218 205.653 32.8898L205.719 32.9568L206.652 31.684L206.586 31.617C206.186 31.2821 205.653 31.0142 205.12 30.7462C204.52 30.4783 203.92 30.4113 203.254 30.4113C202.654 30.4113 202.121 30.4783 201.721 30.6793C201.255 30.8132 200.855 31.0812 200.521 31.3491C200.188 31.617 199.922 31.952 199.788 32.3539C199.655 32.7558 199.522 33.1577 199.522 33.5596C199.522 34.0285 199.589 34.4304 199.788 34.7654C199.988 35.1003 200.255 35.3682 200.521 35.6362C200.855 35.9041 201.188 36.1051 201.588 36.239C201.988 36.44 202.321 36.574 202.721 36.7079L203.587 37.0429C203.854 37.1768 204.12 37.3108 204.387 37.4448C204.587 37.5787 204.786 37.7797 204.92 37.9806C205.053 38.1816 205.12 38.3826 205.12 38.6505C205.12 39.1194 204.92 39.4543 204.587 39.7893C204.253 40.1242 203.72 40.2581 203.054 40.2581C202.454 40.2581 201.854 40.1242 201.388 39.9232C200.921 39.7223 200.455 39.3873 199.988 38.9854L199.922 38.9184L198.922 40.2581L198.989 40.3251C199.522 40.727 200.122 41.129 200.788 41.3969C201.454 41.6648 202.254 41.7988 202.987 41.7988C203.654 41.7988 204.187 41.7318 204.72 41.5309C205.186 41.3299 205.653 41.129 205.986 40.794C206.319 40.5261 206.586 40.1242 206.719 39.7223C206.852 39.3204 206.986 38.9184 206.986 38.4495C206.986 37.9137 206.852 37.5118 206.652 37.1098C206.453 36.8419 206.186 36.574 205.853 36.306Z" fill="white"/>
  <path d="M213.916 39.9232C213.716 39.9902 213.516 40.0572 213.316 40.1242C213.116 40.1912 212.916 40.1912 212.717 40.1912C212.117 40.1912 211.717 39.9902 211.517 39.6553C211.317 39.3204 211.184 38.7845 211.184 38.1816V32.2869H214.049V30.6793H211.184V27.6649H209.518L209.318 30.6793L207.652 30.8132V32.2869H209.251V38.1816C209.251 38.7175 209.318 39.1864 209.385 39.6553C209.518 40.1242 209.651 40.5261 209.918 40.794C210.184 41.129 210.517 41.3299 210.917 41.5309C211.317 41.7318 211.784 41.7988 212.383 41.7988C212.717 41.7988 213.05 41.7318 213.45 41.6648C213.783 41.5979 214.116 41.4639 214.383 41.3969H214.449L214.049 39.9232H213.916Z" fill="white"/>
  <path d="M221.247 36.6409C221.113 37.1098 220.98 37.6457 220.78 38.1146C220.647 38.5835 220.514 39.1194 220.314 39.5883C220.18 39.1194 219.98 38.5835 219.847 38.1146C219.647 37.5787 219.514 37.1098 219.314 36.6409L217.115 30.6792V30.6122H215.116L219.447 41.4639L219.181 42.2677C218.981 42.9375 218.648 43.4734 218.314 43.8753C217.915 44.2772 217.448 44.4782 216.848 44.4782C216.715 44.4782 216.582 44.4782 216.449 44.4112L215.982 44.2772L215.582 45.8179H215.649C215.849 45.8849 216.049 45.9519 216.249 46.0188C216.449 46.0858 216.715 46.0858 216.915 46.0858C217.448 46.0858 217.981 46.0188 218.381 45.8179C218.781 45.6169 219.181 45.349 219.514 45.0141C219.847 44.6791 220.114 44.2772 220.38 43.8083C220.647 43.3394 220.847 42.8705 221.047 42.3347L225.045 30.6792V30.6122H223.113L221.247 36.6409Z" fill="white"/>
  <path d="M231.376 30.4113C230.776 30.4113 230.176 30.6123 229.643 31.0142C229.11 31.4161 228.71 31.885 228.377 32.5548L228.244 30.7462V30.6793H226.645V41.5309H228.577V34.5644C228.91 33.6936 229.377 33.0237 229.843 32.6888C230.31 32.3539 230.776 32.1529 231.243 32.1529C231.443 32.1529 231.643 32.1529 231.776 32.2199C231.909 32.2199 232.109 32.2869 232.242 32.3539H232.309L232.709 30.6123H232.642C232.242 30.4783 231.843 30.4113 231.376 30.4113Z" fill="white"/>
  <path d="M235.374 26.1243C234.974 26.1243 234.708 26.2582 234.441 26.4592C234.175 26.6601 234.042 26.9951 234.042 27.33C234.042 27.6649 234.175 27.9999 234.441 28.2008C234.708 28.4018 235.041 28.5357 235.374 28.5357C235.774 28.5357 236.041 28.4018 236.307 28.2008C236.574 27.9999 236.707 27.6649 236.707 27.33C236.707 26.9281 236.574 26.6601 236.307 26.4592C236.107 26.2582 235.774 26.1243 235.374 26.1243Z" fill="white"/>
  <path d="M236.307 30.6793H234.375V41.5309H236.307V30.6793Z" fill="white"/>
  <path d="M244.971 30.4113C244.238 30.4113 243.571 30.6123 242.971 30.9472C242.438 31.2821 241.905 31.684 241.372 32.2199L241.239 30.6793H239.639V41.5309H241.572V33.6936C242.105 33.1577 242.572 32.7558 242.971 32.4879C243.371 32.2199 243.838 32.0859 244.438 32.0859C245.104 32.0859 245.637 32.2869 245.904 32.7558C246.237 33.2247 246.37 33.8945 246.37 34.8993V41.5309H248.303V34.6314C248.303 33.2247 248.036 32.1529 247.503 31.4831C246.97 30.7462 246.17 30.4113 244.971 30.4113Z" fill="white"/>
  <path d="M259.632 40.727C259.032 40.3251 258.032 40.1242 256.766 40.1242H254.7C253.967 40.1242 253.501 39.9902 253.234 39.7893C252.968 39.5883 252.834 39.3204 252.834 38.9854C252.834 38.7175 252.901 38.4495 253.034 38.2486C253.168 38.0476 253.301 37.9137 253.501 37.7797C253.767 37.9137 253.967 37.9806 254.234 38.0476C254.5 38.1146 254.767 38.1816 255.034 38.1816C255.567 38.1816 256.1 38.1146 256.566 37.9137C257.033 37.7127 257.499 37.5118 257.832 37.1768C258.166 36.8419 258.499 36.44 258.699 35.9711C258.899 35.5022 259.032 34.9663 259.032 34.3634C259.032 33.8945 258.965 33.4926 258.765 33.0907C258.632 32.7558 258.432 32.4879 258.232 32.2199H260.365V30.6793H256.566C256.366 30.6123 256.1 30.5453 255.9 30.4783C255.633 30.4113 255.367 30.4113 255.034 30.4113C254.5 30.4113 253.967 30.4783 253.434 30.6793C252.968 30.8802 252.501 31.1482 252.101 31.4831C251.701 31.818 251.435 32.2199 251.235 32.6888C251.035 33.1577 250.902 33.6936 250.902 34.2965C250.902 34.9663 251.035 35.5692 251.368 36.0381C251.635 36.507 251.968 36.9089 252.301 37.2438C252.035 37.4448 251.768 37.7127 251.502 38.0476C251.235 38.3826 251.102 38.7845 251.102 39.2534C251.102 39.7223 251.168 40.0572 251.368 40.3921C251.568 40.6601 251.768 40.928 252.035 41.062C251.568 41.3969 251.168 41.7988 250.902 42.2007C250.635 42.6026 250.502 43.0715 250.502 43.5404C250.502 44.0093 250.635 44.4782 250.835 44.8131C251.035 45.1481 251.368 45.483 251.768 45.7509C252.168 46.0189 252.634 46.2198 253.168 46.3538C253.701 46.4878 254.3 46.5548 254.967 46.5548C255.833 46.5548 256.566 46.4208 257.233 46.2198C257.899 46.0189 258.499 45.7509 258.965 45.416C259.432 45.0811 259.832 44.6792 260.032 44.2103C260.298 43.7414 260.431 43.2725 260.431 42.7366C260.631 41.7988 260.298 41.129 259.632 40.727ZM252.968 34.2965C252.968 33.4926 253.168 32.8898 253.634 32.4879C254.034 32.0859 254.567 31.885 255.167 31.885C255.767 31.885 256.3 32.0859 256.7 32.4879C257.099 32.8898 257.366 33.4926 257.366 34.2965C257.366 34.6984 257.299 35.0333 257.166 35.3682C257.033 35.7031 256.899 35.9711 256.7 36.172C256.5 36.373 256.233 36.574 255.966 36.6409C255.433 36.8419 254.834 36.8419 254.3 36.6409C254.034 36.507 253.767 36.373 253.567 36.172C253.368 35.9711 253.168 35.7031 253.101 35.3682C252.968 35.0333 252.968 34.6984 252.968 34.2965ZM258.699 43.0045C258.699 43.2725 258.632 43.5404 258.499 43.8084C258.366 44.0763 258.099 44.2773 257.832 44.4782C257.566 44.6792 257.166 44.8131 256.766 44.9471C256.366 45.0811 255.9 45.1481 255.367 45.1481C254.434 45.1481 253.634 44.9471 253.101 44.6792C252.568 44.3442 252.301 43.9423 252.301 43.3395C252.301 43.0715 252.368 42.7366 252.568 42.4687C252.768 42.2007 253.034 41.8658 253.368 41.5979C253.567 41.6648 253.834 41.7318 254.034 41.7318C254.3 41.7318 254.5 41.7988 254.7 41.7988H256.566C257.233 41.7988 257.766 41.8658 258.166 42.0667C258.565 42.2007 258.699 42.5356 258.699 43.0045Z" fill="white"/>
  <path d="M79.3688 30.2103H22.6577V41.5978H79.3688V30.2103Z" fill="white"/>
  <path d="M79.3023 1.67462H45.3157V13.0621H79.3023V1.67462Z" fill="white"/>
  <path d="M79.3689 15.9425H0V27.33H79.3689V15.9425Z" fill="white"/>
</svg>
